#!OML:ASF Y:\EmotionMaleHayes\Project 1\Capture day 1\Session 1\Male1.ASF
:FULLY-SPECIFIED
:DEGREES
483
root 7.61227 16.0764 1.69596 5.01484 171.871 -11.7688
lowerback 10.5195 -3.66066 -10.7128
upperback 5.36556 -5.25352 0.731314
thorax 0.886465 -2.66515 7.2351
lowerneck -19.5627 -9.35956 -8.06311
upperneck 19.7442 -12.0583 6.9244
head 10.481 -5.30808 1.93122
rclavicle 2.38542e-014 -9.54166e-015
rhumerus -71.609 22.319 -97.5291
rradius 51.3714
rwrist -16.0767
rhand -20.7818 -33.8212
rfingers 7.12502
rthumb 5.58505 -63.7276
lclavicle 2.38542e-014 -9.54166e-015
lhumerus 23.0443 -46.2166 65.8239
lradius 80.9348
lwrist 24.2424
lhand -34.9125 -30.8669
lfingers 7.12502
lthumb -8.06029 -1.04061
rfemur -42.7251 -15.9139 10.6605
rtibia 22.0231
rfoot -4.30136 -8.75533
rtoes 18.5514
lfemur 19.4359 3.63697 -40.3439
ltibia 4.18321
lfoot -21.3312 -9.23473
ltoes 3.39863
484
root 7.72826 16.0125 1.44638 4.48336 171.823 -13.1819
lowerback 10.5133 -3.48398 -11.9875
upperback 5.38215 -5.1092 0.389653
thorax 0.987323 -2.61154 7.57122
lowerneck -19.3377 -9.55557 -8.30993
upperneck 19.7608 -12.298 7.03971
head 10.4913 -5.42643 1.97695
rclavicle 2.06736e-014 -3.97569e-014
rhumerus -73.0239 21.4532 -97.6186
rradius 51.6008
rwrist -16.1191
rhand -20.3982 -33.5429
rfingers 7.12502
rthumb 5.9554 -63.4392
lclavicle 2.06736e-014 -3.97569e-014
lhumerus 23.5878 -45.9245 64.9075
lradius 82.2519
lwrist 24.0042
lhand -35.4094 -31.5348
lfingers 7.12502
lthumb -8.53986 -1.72748
rfemur -43.2213 -16.7675 10.5459
rtibia 23.0732
rfoot -4.66254 -10.9587
rtoes 20.1434
lfemur 20.1867 3.6037 -41.5506
ltibia 5.30911
lfoot -21.3004 -9.26072
ltoes 1.85856
485
root 7.84016 15.9584 1.19021 4.07164 171.752 -14.8073
lowerback 10.355 -3.32695 -13.4239
upperback 5.34692 -4.98725 0.0325231
thorax 1.13591 -2.57462 7.96966
lowerneck -19.1248 -9.74943 -8.67978
upperneck 19.7306 -12.4943 7.14135
head 10.4916 -5.53791 2.04358
rclavicle -3.29983e-014 1.43125e-014
rhumerus -74.2002 20.6388 -97.6163
rradius 51.674
rwrist -15.6911
rhand -20.1461 -33.2556
rfingers 7.12502
rthumb 6.19876 -63.1449
lclavicle -3.29983e-014 1.43125e-014
lhumerus 23.7392 -45.7436 64.1718
lradius 83.5501
lwrist 23.8179
lhand -35.8185 -32.3093
lfingers 7.12502
lthumb -8.93463 -2.51852
rfemur -43.9565 -18.0911 10.3826
rtibia 24.7615
rfoot -4.70491 -12.1066
rtoes 21.0186
lfemur 20.5513 4.00168 -42.7539
ltibia 6.85342
lfoot -21.4499 -9.35949
ltoes -3.49886
486
root 7.94919 15.9146 0.919593 3.81929 171.807 -15.6939
lowerback 10.0939 -3.34573 -13.9803
upperback 5.31004 -5.01605 -0.190714
thorax 1.28751 -2.60202 8.02042
lowerneck -19.0083 -9.80298 -8.81483
upperneck 19.802 -12.5161 7.05592
head 10.5011 -5.56866 2.03455
rclavicle 4.13472e-014 -5.40694e-014
rhumerus -75.7716 20.6247 -98.6695
rradius 51.935
rwrist -15.9761
rhand -20.823 -33.4284
rfingers 7.12502
rthumb 5.54526 -63.3358
lclavicle 4.13472e-014 -5.40694e-014
lhumerus 23.225 -45.4776 63.7307
lradius 84.8754
lwrist 23.8011
lhand -35.9258 -32.8625
lfingers 7.12502
lthumb -9.03822 -3.07615
rfemur -44.3318 -19.1958 10.7808
rtibia 26.45
rfoot -3.94853 -11.8448
rtoes 29.4577
lfemur 20.8746 4.07737 -43.2359
ltibia 8.5756
lfoot -21.288 -9.71011
ltoes -7.14125
487
root 8.05704 15.8732 0.643648 3.54377 171.794 -16.1776
lowerback 9.89087 -3.31097 -14.1025
upperback 5.26004 -4.95512 -0.336928
thorax 1.32913 -2.57191 7.91492
lowerneck -18.8526 -9.88904 -8.95709
upperneck 19.9067 -12.6135 7.08825
head 10.5318 -5.61924 2.05657
rclavicle -4.6118e-014 -1.82882e-014
rhumerus -76.6952 19.8766 -98.9364
rradius 51.7279
rwrist -15.4345
rhand -20.6631 -33.0678
rfingers 7.12502
rthumb 5.69958 -62.9711
lclavicle -4.6118e-014 -1.82882e-014
lhumerus 22.475 -45.4889 63.7344
lradius 85.8989
lwrist 23.7238
lhand -36.001 -33.0849
lfingers 7.12502
lthumb -9.11073 -3.30171
rfemur -44.1533 -19.4297 11.0421
rtibia 27.9401
rfoot -3.18955 -10.8121
rtoes 34.7104
lfemur 21.1486 3.81232 -43.4751
ltibia 10.5612
lfoot -20.4153 -10.4504
ltoes -4.96377
488
root 8.1611 15.8325 0.366336 3.21926 171.688 -16.7686
lowerback 9.73348 -3.21537 -14.232
upperback 5.17428 -4.82545 -0.513692
thorax 1.28815 -2.49983 7.78347
lowerneck -18.679 -10.0713 -9.36369
upperneck 19.9912 -12.8284 7.35501
head 10.6002 -5.7165 2.18156
rclavicle -1.98785e-014 -1.59028e-014
rhumerus -77.6849 19.3113 -99.2856
rradius 51.6744
rwrist -15.2559
rhand -20.246 -32.5355
rfingers 7.12502
rthumb 6.10233 -62.4276
lclavicle -1.98785e-014 -1.59028e-014
lhumerus 21.572 -45.7289 64.0622
lradius 86.5938
lwrist 23.4439
lhand -35.8366 -33.2355
lfingers 7.12502
lthumb -8.95216 -3.44543
rfemur -43.7171 -19.0783 10.7616
rtibia 29.3675
rfoot -4.01544 -10.4271
rtoes 32.911
lfemur 21.1768 3.57861 -43.8583
ltibia 12.9832
lfoot -19.3722 -10.8071
ltoes -4.77476
489
root 8.26495 15.7994 0.0885006 2.82325 171.589 -17.5136
lowerback 9.69657 -3.10238 -14.5202
upperback 5.06091 -4.7046 -0.679821
thorax 1.17169 -2.42818 7.76163
lowerneck -18.3635 -10.2089 -9.78468
upperneck 19.8605 -12.9735 7.59604
head 10.5581 -5.79684 2.31846
rclavicle -1.03368e-014 -7.15625e-015
rhumerus -78.9414 19.2499 -99.9358
rradius 51.9063
rwrist -15.6939
rhand -20.2144 -32.3723
rfingers 7.12502
rthumb 6.13287 -62.2635
lclavicle -1.03368e-014 -7.15625e-015
lhumerus 20.2619 -46.0905 64.4517
lradius 87.399
lwrist 23.2322
lhand -35.4377 -33.3571
lfingers 7.12502
lthumb -8.56717 -3.55088
rfemur -43.1982 -18.4971 10.031
rtibia 30.6866
rfoot -5.84793 -12.1306
rtoes 28.6209
lfemur 21.0041 3.52209 -44.2404
ltibia 15.7595
lfoot -17.777 -11.2173
ltoes -6.95795
490
root 8.37259 15.7742 -0.180523 2.35979 171.46 -17.8938
lowerback 9.91319 -2.90941 -14.5534
upperback 4.96439 -4.49982 -0.750677
thorax 0.89466 -2.30118 7.71461
lowerneck -17.8437 -10.3649 -10.2614
upperneck 19.4545 -13.1973 8.08522
head 10.4116 -5.90147 2.54675
rclavicle -1.23246e-014 -5.56597e-014
rhumerus -79.7386 18.9554 -100.228
rradius 51.7727
rwrist -15.6352
rhand -19.893 -32.0211
rfingers 7.12502
rthumb 6.44315 -61.9031
lclavicle -1.23246e-014 -5.56597e-014
lhumerus 18.5726 -46.6137 65.1774
lradius 88.0582
lwrist 22.8359
lhand -34.9392 -33.174
lfingers 7.12502
lthumb -8.08611 -3.34872
rfemur -42.7832 -17.6826 9.56112
rtibia 32.0698
rfoot -7.03884 -14.5156
rtoes 30.0266
lfemur 20.7036 3.80837 -43.8537
ltibia 18.8058
lfoot -15.0166 -12.4945
ltoes -5.74359
491
root 8.48567 15.7563 -0.440982 2.00309 171.298 -17.7364
lowerback 10.1241 -2.6975 -14.0616
upperback 4.90777 -4.22791 -0.772699
thorax 0.600355 -2.1357 7.42221
lowerneck -17.3135 -10.5649 -10.6922
upperneck 18.9553 -13.552 8.81434
head 10.2632 -6.0387 2.82948
rclavicle 9.54166e-015 5.96354e-014
rhumerus -80.0575 18.4522 -100.502
rradius 51.376
rwrist -15.4397
rhand -19.7676 -31.6442
rfingers 7.12502
rthumb 6.56422 -61.5224
lclavicle 9.54166e-015 5.96354e-014
lhumerus 16.6201 -47.2702 66.2872
lradius 88.3793
lwrist 21.9675
lhand -34.2603 -32.6156
lfingers 7.12502
lthumb -7.43078 -2.76613
rfemur -42.8357 -16.779 9.73365
rtibia 34.1505
rfoot -7.89394 -15.6814
rtoes 33.3523
lfemur 20.1289 4.29269 -42.5841
ltibia 22.1163
lfoot -11.1414 -13.9841
ltoes -1.59301
492
root 8.59436 15.7475 -0.696852 1.63593 171.143 -17.3367
lowerback 10.3003 -2.53591 -13.3123
upperback 4.97727 -3.97202 -0.748978
thorax 0.451159 -1.98805 7.02629
lowerneck -17.0843 -10.7244 -10.8237
upperneck 18.468 -13.8616 9.35422
head 10.1355 -6.14899 2.99468
rclavicle -2.90226e-014 7.95139e-015
rhumerus -79.8345 18.1359 -100.825
rradius 50.7192
rwrist -15.4821
rhand -19.7558 -31.3433
rfingers 7.12502
rthumb 6.57561 -61.2212
lclavicle -2.90226e-014 7.95139e-015
lhumerus 14.548 -47.9838 67.4941
lradius 88.5454
lwrist 20.8829
lhand -33.9608 -32.0827
lfingers 7.12502
lthumb -7.14174 -2.22325
rfemur -43.0979 -15.9505 10.2556
rtibia 36.9944
rfoot -9.74136 -15.8761
rtoes 32.8488
lfemur 19.3657 4.72403 -41.014
ltibia 25.6445
lfoot -6.28692 -14.8629
ltoes 2.83096
493
root 8.69901 15.7513 -0.951495 1.07573 171.016 -16.5048
lowerback 10.6533 -2.44304 -12.2436
upperback 5.22052 -3.7689 -0.594636
thorax 0.392448 -1.86977 6.59637
lowerneck -17.1262 -10.8557 -10.7055
upperneck 18.1275 -14.1345 9.6955
head 10.072 -6.23569 3.04692
rclavicle 5.04913e-014 2.06736e-014
rhumerus -79.059 18.1241 -101.027
rradius 49.7279
rwrist -15.3124
rhand -19.687 -31.0906
rfingers 7.12502
rthumb 6.64199 -60.9665
lclavicle 5.04913e-014 2.06736e-014
lhumerus 12.1522 -48.5544 68.9444
lradius 88.5024
lwrist 19.8153
lhand -33.8124 -31.767
lfingers 7.12502
lthumb -6.99848 -1.90274
rfemur -42.5508 -14.7112 11.1574
rtibia 39.3531
rfoot -11.6882 -16.1893
rtoes 33.3045
lfemur 18.6904 5.16884 -38.8986
ltibia 29.2931
lfoot -0.907755 -14.9458
ltoes 6.22773
494
root 8.81715 15.7678 -1.20819 0.54129 170.897 -15.1181
lowerback 10.9746 -2.42314 -10.7397
upperback 5.49889 -3.6093 -0.34865
thorax 0.372384 -1.7683 6.01722
lowerneck -17.1812 -11.0049 -10.6288
upperneck 18.0089 -14.4389 10.0762
head 10.1015 -6.32687 3.11247
rclavicle 0 -2.22639e-014
rhumerus -78.2233 18.4456 -101.508
rradius 48.7639
rwrist -15.1515
rhand -20.2143 -31.4098
rfingers 7.12502
rthumb 6.13295 -61.301
lclavicle 0 -2.22639e-014
lhumerus 9.37111 -49.1321 70.4332
lradius 88.2995
lwrist 19.0851
lhand -33.3612 -31.6324
lfingers 7.12502
lthumb -6.56294 -1.7541
rfemur -41.1153 -12.7646 12.6123
rtibia 40.5914
rfoot -13.7295 -16.7734
rtoes 33.3347
lfemur 17.979 5.54967 -36.0447
ltibia 32.9728
lfoot 4.03249 -14.311
ltoes 8.51142
495
root 8.94515 15.791 -1.45905 0.027182 170.725 -13.5527
lowerback 11.3048 -2.42513 -9.14066
upperback 5.73467 -3.46549 -0.0901021
thorax 0.305491 -1.66577 5.39617
lowerneck -17.1186 -11.1425 -10.6415
upperneck 17.9222 -14.7241 10.5068
head 10.1321 -6.41193 3.21708
rclavicle 1.59028e-014 -7.95139e-015
rhumerus -77.383 19.0399 -102.337
rradius 47.8464
rwrist -15.1739
rhand -20.8003 -31.8209
rfingers 7.12502
rthumb 5.56721 -61.7277
lclavicle 1.59028e-014 -7.95139e-015
lhumerus 6.29944 -49.7159 72.173
lradius 87.7385
lwrist 18.6265
lhand -33.0884 -31.6694
lfingers 7.12502
lthumb -6.29957 -1.78307
rfemur -39.804 -12.3116 14.724
rtibia 41.873
rfoot -15.2967 -16.1915
rtoes 32.3678
lfemur 17.1553 5.72293 -33.031
ltibia 36.6406
lfoot 7.66094 -13.6376
ltoes 7.28668
